<svg width="155" height="27" viewBox="0 0 155 27" fill="none" xmlns="http://www.w3.org/2000/svg">
<path d="M103.39 1.07014H109.23V26.0001H105.64V5.43014L105.26 7.36014L101.67 26.0001H98.0798L94.4298 7.40014L94.0798 5.48014V26.0001H90.4899V1.07014H96.2699L98.1698 10.2901C98.9398 14.0001 99.5098 18.5701 99.7498 20.5301H99.9998C100.29 18.6301 100.86 14.0301 101.6 10.2601L103.39 1.07014ZM119 22.2201C118.843 22.5548 118.596 22.8395 118.287 23.0425C117.978 23.2455 117.619 23.3589 117.25 23.3701C116.42 23.3701 116.09 22.7201 116.09 21.1201V7.77014H112V21.3601C112 24.7101 113.09 26.2601 115.53 26.2601C116.36 26.2766 117.175 26.0444 117.872 25.5936C118.569 25.1427 119.115 24.4938 119.44 23.7301H119.53L119.88 25.9601H123V7.77014H119V22.2201ZM131 15.0001C129.66 14.0001 128.83 13.3701 128.83 12.0001C128.799 11.7837 128.82 11.5632 128.889 11.3561C128.959 11.149 129.077 10.9611 129.232 10.8076C129.388 10.654 129.577 10.5389 129.785 10.4717C129.993 10.4044 130.214 10.3868 130.43 10.4201C131.59 10.4201 131.98 11.2201 132.01 13.9501L135.45 13.8001C135.71 9.38014 134.26 7.54014 130.45 7.54014C126.95 7.54014 125.23 9.11014 125.23 12.3401C125.23 15.2801 126.65 16.6101 128.97 18.3401C130.97 19.8801 132.11 20.7401 132.11 21.9901C132.125 22.2068 132.093 22.4242 132.016 22.6273C131.939 22.8304 131.819 23.0144 131.664 23.1666C131.509 23.3187 131.323 23.4354 131.119 23.5085C130.914 23.5817 130.696 23.6095 130.48 23.5901C129.27 23.5901 128.55 22.4301 128.73 20.4201L125.26 20.4801C124.72 24.2501 126.26 26.4801 130.26 26.4801C133.79 26.4801 135.63 24.8501 135.63 21.5801C135.65 18.5101 134.16 17.3201 131 15.0001ZM137.94 26.0001H141.85V7.77014H137.9L137.94 26.0001ZM139.94 0.630137C138.43 0.630137 137.71 1.20014 137.71 3.15014C137.71 5.10014 138.43 5.67014 139.94 5.67014C141.45 5.67014 142.16 5.17014 142.16 3.15014C142.16 1.13014 141.43 0.590137 139.89 0.590137L139.94 0.630137ZM155 19.4001L151.41 19.2201C151.41 22.4301 151.06 23.4601 149.84 23.4601C148.62 23.4601 148.41 22.3101 148.41 18.5401V15.0001C148.41 11.3601 148.65 10.2001 149.86 10.2001C151.07 10.2001 151.29 11.3001 151.29 14.6801L154.85 14.4401C155.09 11.6201 154.73 9.69014 153.63 8.60014C153.124 8.16484 152.536 7.83529 151.9 7.63091C151.265 7.42653 150.595 7.35146 149.93 7.41014C145.93 7.41014 144.32 9.55014 144.32 15.5401V18.0901C144.32 24.2601 145.72 26.2401 149.78 26.2401C151.116 26.3695 152.449 25.9671 153.49 25.1201C154.63 24.0601 155.08 22.2201 155 19.4001ZM23.7298 10.8401C24.1517 12.3732 24.3405 13.9609 24.2898 15.5501V18.1901C24.337 19.7687 24.1517 21.3456 23.7398 22.8701C23.4795 23.9072 22.8638 24.8202 21.9998 25.4501C20.9893 26.04 19.8283 26.3216 18.6598 26.2601C17.4682 26.3245 16.2844 26.032 15.2598 25.4201C14.3884 24.7999 13.7677 23.8882 13.5098 22.8501C13.1225 21.3283 12.9508 19.7597 12.9998 18.1901V15.5401C12.9527 13.9491 13.1517 12.3604 13.5898 10.8301C13.8901 9.77424 14.5475 8.85527 15.4498 8.23014C16.4517 7.64591 17.6014 7.36456 18.7598 7.42014C19.8989 7.36284 21.0286 7.65224 21.9998 8.25014C22.8553 8.89063 23.4658 9.8046 23.7298 10.8401ZM20.1698 14.0001C20.2119 13.0314 20.097 12.0622 19.8298 11.1301C19.7586 10.8679 19.6019 10.637 19.3845 10.4739C19.1671 10.3109 18.9015 10.2251 18.6298 10.2301C18.3611 10.2278 18.0993 10.315 17.8857 10.478C17.672 10.641 17.5187 10.8704 17.4498 11.1301C17.1826 12.0622 17.0678 13.0314 17.1098 14.0001V19.6701C17.0663 20.6508 17.1743 21.6323 17.4298 22.5801C17.4994 22.8406 17.6546 23.07 17.8705 23.2315C18.0864 23.393 18.3503 23.477 18.6198 23.4701C18.8911 23.4746 19.1564 23.39 19.3749 23.2292C19.5935 23.0684 19.7533 22.8404 19.8298 22.5801C20.1001 21.635 20.215 20.6522 20.1698 19.6701V14.0001ZM84.6398 10.6101C84.9913 12.0832 85.146 13.5964 85.0999 15.1101V18.2301H78.2498V19.1501C78.2359 20.0246 78.2692 20.8992 78.3498 21.7701C78.3789 22.227 78.5271 22.6684 78.7798 23.0501C78.9048 23.1889 79.0599 23.2971 79.2333 23.3665C79.4067 23.4358 79.5937 23.4644 79.7798 23.4501C80.0372 23.474 80.2956 23.4189 80.5208 23.292C80.7459 23.1651 80.927 22.9726 81.0398 22.7401C81.317 21.9783 81.446 21.1704 81.4198 20.3601L84.9498 20.5701C84.9498 20.7301 84.9498 20.9501 84.9498 21.2201C85.011 21.9103 84.922 22.6055 84.6889 23.258C84.4559 23.9105 84.0844 24.5048 83.5999 25.0001C82.5038 25.8934 81.1109 26.3398 79.6998 26.2501C77.6998 26.2501 76.2698 25.6101 75.4598 24.3501C74.5288 22.5404 74.1104 20.5105 74.2498 18.4801V15.2901C74.2498 12.5601 74.6598 10.5701 75.5098 9.29014C76.3598 8.01014 77.7798 7.41014 79.8198 7.41014C80.9525 7.33794 82.0808 7.60609 83.0598 8.18014C83.8648 8.77075 84.4266 9.63478 84.6398 10.6101ZM81.2498 14.4901C81.2586 13.6019 81.2185 12.7139 81.1298 11.8301C81.1032 11.3728 80.9547 10.9308 80.6998 10.5501C80.5734 10.4149 80.4172 10.3111 80.2436 10.2469C80.07 10.1826 79.8838 10.1598 79.6998 10.1801C79.5145 10.1653 79.3283 10.1928 79.1551 10.2603C78.9819 10.3279 78.8262 10.4338 78.6998 10.5701C78.4571 10.9479 78.3158 11.3819 78.2898 11.8301C78.2087 12.7144 78.1754 13.6023 78.1898 14.4901V15.7901H81.1898L81.2498 14.4901ZM9.92984 1.06014L8.23985 8.72014C7.76985 10.9501 7.46985 12.5501 7.32985 13.4901H7.20984C7.00984 12.1701 6.70984 10.5701 6.28984 8.69014L4.65984 1.06014H0.589844L5.24984 17.8801V26.0001H9.24984V17.8801L13.9998 1.06014H9.92984ZM33.4098 22.2201C33.2558 22.561 33.0056 22.8495 32.6898 23.0501C32.3963 23.2563 32.0484 23.3711 31.6898 23.3801C31.5065 23.3922 31.3238 23.3492 31.1652 23.2565C31.0066 23.1638 30.8793 23.0258 30.7998 22.8601C30.5832 22.3105 30.491 21.7197 30.5298 21.1301V7.77014H26.4298V21.3601C26.334 22.6554 26.6339 23.9492 27.2898 25.0701C27.6065 25.4787 28.0203 25.8016 28.4937 26.0094C28.967 26.2173 29.4847 26.3035 29.9998 26.2601C30.8285 26.2712 31.6419 26.0369 32.3376 25.5867C33.0334 25.1365 33.5804 24.4905 33.9098 23.7301H33.9998L34.2998 26.0001H37.5098V7.77014H33.4098V22.2201ZM54.4098 22.2201C54.2493 22.5599 53.9963 22.8475 53.6798 23.0501C53.3877 23.259 53.0389 23.3741 52.6798 23.3801C52.4968 23.3909 52.3146 23.3472 52.1562 23.2547C51.9978 23.1622 51.8704 23.0249 51.7898 22.8601C51.5782 22.3093 51.4894 21.7189 51.5298 21.1301V7.77014H47.4298V21.3601C47.3289 22.6558 47.6291 23.9511 48.2898 25.0701C48.6047 25.4808 49.0182 25.8052 49.492 26.0133C49.9658 26.2213 50.4844 26.3062 50.9998 26.2601C51.8302 26.2732 52.6457 26.0398 53.3435 25.5895C54.0412 25.1392 54.5898 24.4921 54.9198 23.7301H54.9998L55.3598 25.9601H58.5598V7.77014H54.4198L54.4098 22.2201ZM48.6398 1.06014H36.4998V4.36014H40.5698V26.0001H44.5698V4.36014H48.6398V1.06014ZM72.0698 10.6801C72.3543 12.2569 72.4783 13.8584 72.4398 15.4601V18.3401C72.5549 20.3895 72.2134 22.4389 71.4398 24.3401C71.1765 24.9259 70.7451 25.4203 70.2002 25.7604C69.6554 26.1004 69.0218 26.2709 68.3798 26.2501C67.6414 26.2579 66.9138 26.0717 66.2698 25.7101C65.6588 25.3842 65.1629 24.8779 64.8498 24.2601H64.7598L64.3598 26.0001H60.9998V0.140137H64.9998V9.73014C65.3445 9.04558 65.8658 8.46556 66.5098 8.05014C67.1362 7.63672 67.8693 7.41436 68.6198 7.41014C69.4507 7.36353 70.2674 7.63936 70.8998 8.18014C71.5318 8.87724 71.9394 9.74831 72.0698 10.6801ZM68.3098 15.7501C68.3256 14.6519 68.2822 13.5537 68.1798 12.4601C68.1508 11.8802 67.9864 11.3151 67.6998 10.8101C67.5934 10.6453 67.4441 10.5126 67.2679 10.4263C67.0917 10.34 66.8953 10.3033 66.6998 10.3201C66.2846 10.3303 65.8897 10.5026 65.5998 10.8001C65.2576 11.1314 65.0121 11.5498 64.8898 12.0101V22.3301C65.0492 22.6291 65.288 22.8782 65.5798 23.0501C65.8673 23.2097 66.1911 23.2924 66.5198 23.2901C66.7121 23.2917 66.9022 23.2493 67.0755 23.1661C67.2488 23.0829 67.4008 22.9611 67.5198 22.8101C67.8366 22.3324 68.026 21.7817 68.0698 21.2101C68.1941 20.175 68.2476 19.1326 68.2298 18.0901L68.3098 15.7501Z" fill="#282828"/>
</svg>
