<svg width="200" height="53" viewBox="0 0 200 53" fill="none" xmlns="http://www.w3.org/2000/svg">
<path d="M25.1832 29.8872L35.9132 8.88717C36.6932 7.34717 37.3932 5.76717 38.2832 4.29717C39.0204 2.92141 40.2166 1.84772 41.6638 1.26302C43.1109 0.678318 44.7173 0.619629 46.2032 1.09717C48.8632 1.81717 50.2832 3.78717 50.2932 7.33717C50.3466 20.5105 50.3466 33.6872 50.2932 46.8672C50.2932 50.6072 48.2932 52.7172 45.1632 52.8072C42.0332 52.8972 39.7232 50.6572 39.6532 46.8072C39.5532 40.8972 39.6532 34.9772 39.6532 29.0672V24.6072C39.021 25.4167 38.4303 26.2578 37.8832 27.1272C35.7632 31.0372 33.6432 34.8872 31.7032 38.8872C30.2932 41.7872 28.4132 43.7772 24.9732 43.7172C21.5332 43.6572 20.0432 41.4372 18.7232 38.7172C16.8832 35.0172 14.9032 31.3272 13.0032 27.6272C12.5397 26.6719 11.8151 25.8676 10.9132 25.3072V29.0672C10.9132 35.2272 10.9832 41.3872 10.8532 47.5372C10.8789 48.2213 10.7658 48.9036 10.5206 49.5428C10.2754 50.182 9.90335 50.765 9.42677 51.2565C8.9502 51.7481 8.37901 52.138 7.74766 52.4027C7.1163 52.6675 6.43786 52.8017 5.75324 52.7972C3.00324 52.9572 0.923243 51.3272 0.283243 48.3472C0.0746754 47.2634 -0.0191755 46.1606 0.00324349 45.0572C0.00324349 39.6372 0.00324349 34.2172 0.00324349 28.7972C0.00324349 22.3972 0.00324349 15.9872 0.00324349 9.58717C-0.0142332 8.34834 0.0761075 7.11034 0.273243 5.88717C0.693243 3.40717 1.86324 1.48717 4.59324 1.02717C7.32324 0.567171 10.1132 0.887171 11.7332 3.59717C13.3532 6.30717 14.6432 9.00717 16.0332 11.7472C19.0032 17.5472 21.8832 23.3572 25.1832 29.8872ZM121.003 33.9872C121.003 44.6672 128.863 52.7272 139.483 52.8172C150.323 52.9072 158.533 44.8172 158.483 34.1272C158.279 29.3055 156.225 24.7479 152.747 21.4018C149.269 18.0557 144.636 16.1785 139.81 16.1605C134.984 16.1425 130.337 17.985 126.834 21.305C123.332 24.625 121.243 29.1671 121.003 33.9872ZM139.783 43.1072C135.263 43.1972 131.433 39.1072 131.433 34.1072C131.433 29.1072 135.263 25.1072 139.853 25.1972C144.443 25.2872 147.793 28.9772 147.853 33.9872C147.893 39.2072 144.503 43.0172 139.743 43.1072H139.783ZM73.6932 36.7372C78.4832 36.7372 83.2832 36.7372 88.0832 36.7372C91.5832 36.7372 93.2732 35.0372 93.5332 31.5872C93.5937 30.7296 93.5331 29.8678 93.3532 29.0272C92.0032 22.2272 88.0032 17.6872 81.2832 16.0472C74.0932 14.3072 67.8732 16.0972 63.1532 22.0472C59.9232 26.1072 59.0032 30.8872 59.3432 35.8872C59.7532 42.8872 62.9432 48.2372 69.3432 50.9772C76.3432 53.9772 83.3432 53.7772 89.6532 49.1172C92.4032 47.1172 92.7832 44.4172 91.0832 42.0472C89.3832 39.6772 86.9432 39.3872 84.0032 40.9672C82.3324 41.971 80.5082 42.694 78.6032 43.1072C74.1632 43.8172 70.9932 41.4072 70.0632 36.7372H73.6932ZM70.9532 29.7372C71.2832 26.5172 73.4432 24.7372 76.8332 24.7372C80.2232 24.7372 81.9332 26.3672 82.2932 29.7372H70.9532ZM169.953 16.9172C167.213 17.9972 166.863 20.4472 166.893 23.0472C166.893 26.7372 166.893 30.4272 166.893 34.1172C166.893 38.6672 166.893 43.2172 166.893 47.7672C166.869 48.7633 167.155 49.7424 167.713 50.5684C168.27 51.3945 169.07 52.0266 170.003 52.3772C172.003 53.2272 174.113 53.0572 175.443 51.4372C176.463 50.0975 177.064 48.487 177.173 46.8072C177.403 42.6372 177.173 38.4372 177.303 34.2572C177.332 32.5595 177.609 30.8752 178.123 29.2572C178.556 28.0816 179.371 27.0851 180.437 26.4271C181.503 25.769 182.758 25.4874 184.003 25.6272C185.181 25.625 186.323 26.0315 187.235 26.7774C188.147 27.5232 188.772 28.5622 189.003 29.7172C189.359 31.1434 189.54 32.6074 189.543 34.0772C189.613 38.6272 189.543 43.1772 189.543 47.7272C189.503 48.7157 189.77 49.6925 190.307 50.5233C190.844 51.3542 191.625 51.9983 192.543 52.3672C193.422 52.8507 194.439 53.0229 195.428 52.8559C196.418 52.6889 197.322 52.1925 197.993 51.4472C199.084 50.0009 199.708 48.2569 199.783 46.4472C200.013 41.4472 199.973 36.3572 199.783 31.3172C199.814 27.6006 198.689 23.9663 196.563 20.9172C193.213 16.3472 184.333 13.3072 176.763 19.1072C175.003 16.5872 172.633 15.8872 169.933 16.8872L169.953 16.9172ZM102.303 26.8872C102.303 33.8872 102.243 40.8872 102.303 47.8872C102.283 49.1309 102.742 50.3348 103.585 51.249C104.429 52.1633 105.592 52.7177 106.833 52.7972C108.066 52.9552 109.313 52.6256 110.306 51.8784C111.3 51.1313 111.963 50.0257 112.153 48.7972C112.447 47.4843 112.591 46.1425 112.583 44.7972C112.623 32.8838 112.623 20.9705 112.583 9.05717C112.593 7.59052 112.414 6.12868 112.053 4.70717C111.824 3.67349 111.232 2.7562 110.384 2.12148C109.537 1.48675 108.49 1.17659 107.433 1.24717C104.353 1.16717 102.323 3.15717 102.293 6.60717C102.213 13.3572 102.293 20.1172 102.293 26.8672L102.303 26.8872ZM161.673 6.88717C161.627 5.01474 160.838 3.23744 159.482 1.94625C158.125 0.655066 156.311 -0.0442417 154.438 0.00217118C152.566 0.0485841 150.789 0.836915 149.497 2.19374C148.206 3.55057 147.507 5.36474 147.553 7.23717C147.6 9.1096 148.388 10.8869 149.745 12.1781C151.102 13.4693 152.916 14.1686 154.788 14.1222C156.661 14.0758 158.438 13.2874 159.729 11.9306C161.02 10.5738 161.72 8.7596 161.673 6.88717Z" fill="#00CD3C"/>
</svg>
