<svg width="132" height="40" viewBox="0 0 132 40" fill="none" xmlns="http://www.w3.org/2000/svg">
<path d="M11.3043 9.81367H15.6521V13.6646H11.3043V24.2236C11.3043 26.2112 11.8012 26.7081 13.7888 26.7081C14.4099 26.7081 15.031 26.7081 15.6521 26.5839V31.1801C14.6584 31.3043 13.4161 31.4286 12.1739 31.4286C8.5714 31.4286 5.46581 30.559 5.46581 26.3354V13.6646H1.98755V9.81367H5.59003V3.35404H11.4285V9.81367H11.3043Z" fill="black"/>
<path d="M18.7578 9.81366H24.3479V13.7888H24.4721C25.5901 11.0559 28.4473 9.19255 31.3044 9.19255C31.6771 9.19255 32.174 9.31677 32.5466 9.44099V14.9068C32.0497 14.7826 31.1802 14.6584 30.4348 14.6584C26.087 14.6584 24.7205 17.764 24.7205 21.4907V31.0559H18.882V9.81366H18.7578Z" fill="black"/>
<path d="M34.7827 9.81366H40.6212V31.0559H34.7827V9.81366ZM40.6212 6.45963H34.7827V1.61491H40.6212V6.45963Z" fill="black"/>
<path d="M60.9939 20.4969C60.9939 17.1429 59.6274 13.6646 55.9007 13.6646C52.0498 13.6646 50.8076 17.1429 50.8076 20.4969C50.8076 23.9752 52.174 27.205 55.9007 27.205C59.7516 27.205 60.9939 23.9752 60.9939 20.4969ZM45.0933 9.81366H50.6833V12.5466H50.8076C52.174 10.3106 54.5343 9.19255 57.143 9.19255C63.851 9.19255 66.8324 14.6584 66.8324 20.6211C66.8324 26.3354 63.7268 31.677 57.5156 31.677C54.9069 31.677 52.5467 30.559 51.1802 28.4472H51.056V38.6335H45.2175V9.81366H45.0933Z" fill="black"/>
<path d="M76.2733 1.61491H70.4348V31.0559H76.2733V1.61491Z" fill="black"/>
<path d="M95.1552 18.1366C94.6583 15.1553 93.2918 13.5404 90.4347 13.5404C86.708 13.5404 85.59 16.3975 85.59 18.1366H95.1552ZM85.59 21.8634C85.7142 25.5901 87.5776 27.3292 90.8074 27.3292C93.1676 27.3292 95.031 25.8385 95.4036 24.5963H100.621C99.0061 29.6894 95.4036 31.8012 90.6831 31.8012C83.9751 31.8012 79.7515 27.205 79.7515 20.6211C79.7515 14.2857 84.2235 9.31677 90.6831 9.31677C97.8881 9.31677 101.491 15.4037 100.994 21.9876H85.59V21.8634Z" fill="black"/>
<path d="M109.565 21.3665C109.565 25.3416 112.671 26.8323 116.025 26.8323C118.261 26.8323 121.739 26.2112 121.739 23.1056C121.739 19.8758 117.267 19.3789 113.044 18.2609C108.696 17.1429 104.224 15.4037 104.224 9.93789C104.224 3.85093 109.938 0.99379 115.28 0.99379C121.367 0.99379 127.081 3.72671 127.081 10.4348H120.87C120.621 6.8323 118.137 5.96273 115.031 5.96273C112.919 5.96273 110.559 6.8323 110.559 9.31677C110.559 11.5528 111.926 11.9255 119.379 13.7888C121.491 14.2857 128.075 15.6522 128.075 22.3602C128.075 27.8261 123.851 31.8012 115.776 31.8012C109.317 31.8012 103.106 28.5714 103.23 21.3665H109.565Z" fill="black"/>
</svg>
