<svg width="201" height="48" viewBox="0 0 201 48" fill="none" xmlns="http://www.w3.org/2000/svg">
<path d="M84.5702 47.49V15H84.3302L71.3302 47.54H66.2502L53.2302 15H53.0002V47.49H47.0002V3.37H54.7202L68.7202 38.57H68.9602L82.9602 3.37H90.9602V47.49H84.5702ZM124.83 47.49H118.56V41.94H118.32C116.63 45.8 113.25 47.94 108.43 47.94C101.43 47.94 97.3402 43.36 97.3402 35.94V15.19H103.85V34.71C103.85 39.53 106.26 42.19 110.6 42.19C115.42 42.19 118.08 38.81 118.08 33.75V15.19H124.58L124.83 47.49ZM142.66 14.7C150.14 14.7 154.72 18.8 154.96 24.83H148.96C148.48 21.7 146.31 19.77 142.69 19.77C139.07 19.77 136.69 21.45 136.69 24.11C136.69 26.03 138.13 27.48 141.51 28.2L146.57 29.41C153.08 30.86 155.49 33.51 155.49 38.09C155.49 43.87 150.19 47.97 142.71 47.97C134.76 47.97 129.94 44.11 129.46 37.85H135.96C136.45 41.22 138.86 42.91 142.71 42.91C146.56 42.91 148.98 41.22 148.98 38.57C148.98 36.4 147.78 35.19 144.4 34.47L139.34 33.27C133.34 31.82 130.42 28.93 130.42 24.11C130.37 18.56 135.19 14.7 142.66 14.7ZM160.26 6.75C160.234 6.22724 160.314 5.70452 160.495 5.21363C160.677 4.72274 160.957 4.27394 161.317 3.89451C161.678 3.51508 162.112 3.21296 162.593 3.00651C163.074 2.80006 163.592 2.69359 164.115 2.69359C164.639 2.69359 165.157 2.80006 165.638 3.00651C166.119 3.21296 166.553 3.51508 166.913 3.89451C167.274 4.27394 167.553 4.72274 167.735 5.21363C167.917 5.70452 167.997 6.22724 167.97 6.75C167.997 7.27276 167.917 7.79548 167.735 8.28637C167.553 8.77726 167.274 9.22606 166.913 9.60549C166.553 9.98492 166.119 10.287 165.638 10.4935C165.157 10.6999 164.639 10.8064 164.115 10.8064C163.592 10.8064 163.074 10.6999 162.593 10.4935C162.112 10.287 161.678 9.98492 161.317 9.60549C160.957 9.22606 160.677 8.77726 160.495 8.28637C160.314 7.79548 160.234 7.27276 160.26 6.75ZM160.74 15.19H167.25V47.49H160.74V15.19ZM194.74 26.28C194 22.9 191.6 20 187.26 20C182.2 20 178.82 24.34 178.82 31.09C178.82 38.09 182.2 42.18 187.26 42.18C191.36 42.18 193.77 40.01 194.73 36.18H201C200.28 42.93 195 47.75 187.26 47.75C178.1 47.75 172.31 41.48 172.31 31.12C172.31 20.99 178.1 14.48 187.26 14.48C195.46 14.48 200.26 19.79 201 26.05L194.73 26.3L194.74 26.28ZM27.0002 7.71C25.3202 9.64 22.6702 11.33 20.0002 11.09C19.8611 9.74578 20.0036 8.38732 20.4185 7.1012C20.8335 5.81508 21.5118 4.6295 22.4102 3.62C23.2527 2.55376 24.3128 1.67938 25.5198 1.05516C26.7269 0.430938 28.0532 0.0712236 29.4102 0C29.5805 2.7787 28.7227 5.52295 27.0002 7.71ZM29.4202 11.57C31.1338 11.6182 32.8101 12.082 34.3047 12.9217C35.7993 13.7613 37.0676 14.9516 38.0002 16.39C37.7602 16.63 32.9402 19.53 32.9402 25.55C32.9241 27.5948 33.51 29.5991 34.6249 31.3133C35.7399 33.0274 37.3345 34.3757 39.2102 35.19C38.5147 37.5855 37.4593 39.8615 36.0802 41.94C34.1502 44.84 31.9802 47.73 28.8402 47.73C25.7002 47.73 24.7502 45.8 21.1302 45.8C17.5102 45.8 16.3102 47.73 13.4202 47.73C10.2802 47.73 7.8702 44.6 5.9402 41.73C1.8402 35.73 -1.2898 24.86 3.0502 17.63C3.98546 15.8689 5.36973 14.3863 7.06267 13.3326C8.75562 12.2789 10.6971 11.6915 12.6902 11.63C15.8302 11.63 18.6902 13.8 20.4102 13.8C22.1302 13.8 25.4702 11.39 29.3302 11.63L29.4202 11.57Z" fill="black"/>
</svg>
