<svg width="200" height="60" viewBox="0 0 200 60" fill="none" xmlns="http://www.w3.org/2000/svg">
<path d="M30 0C24.0666 0 18.2664 1.75947 13.3329 5.05591C8.39943 8.35235 4.55426 13.0377 2.28363 18.5195C0.0129986 24.0013 -0.581102 30.0333 0.576455 35.8527C1.73401 41.6721 4.59123 47.0176 8.78681 51.2132C12.9824 55.4088 18.3279 58.266 24.1473 59.4236C29.9667 60.5811 35.9987 59.987 41.4805 57.7164C46.9623 55.4458 51.6477 51.6006 54.9441 46.6671C58.2405 41.7336 60 35.9334 60 30C60 22.0435 56.8393 14.4129 51.2132 8.7868C45.5871 3.16071 37.9565 0 30 0ZM43.75 43.26C43.4913 43.6829 43.0753 43.9858 42.5934 44.102C42.1114 44.2183 41.6031 44.1384 41.18 43.88C34.18 39.58 25.27 38.6 14.83 40.99C14.5904 41.0445 14.3423 41.0513 14.1 41.0099C13.8578 40.9685 13.626 40.8799 13.418 40.7489C13.21 40.618 13.0298 40.4474 12.8877 40.2468C12.7457 40.0462 12.6445 39.8197 12.59 39.58C12.5355 39.3403 12.5288 39.0923 12.5701 38.85C12.6115 38.6077 12.7002 38.376 12.8311 38.168C12.962 37.96 13.1326 37.7798 13.3332 37.6377C13.5338 37.4957 13.7604 37.3945 14 37.34C25.42 34.73 35.22 35.85 43.13 40.69C43.5529 40.9487 43.8558 41.3647 43.972 41.8467C44.0883 42.3286 44.0084 42.8369 43.75 43.26ZM47.42 35.09C47.2592 35.3521 47.0484 35.5799 46.7995 35.7605C46.5507 35.9411 46.2686 36.0708 45.9696 36.1423C45.6705 36.2138 45.3603 36.2257 45.0567 36.1773C44.7531 36.1288 44.462 36.021 44.2 35.86C36.14 30.91 23.85 29.47 14.31 32.37C13.7321 32.4942 13.1285 32.395 12.6207 32.0925C12.1129 31.7899 11.7384 31.3063 11.5724 30.739C11.4065 30.1716 11.4615 29.5624 11.7263 29.0339C11.9912 28.5054 12.4462 28.0967 13 27.89C23.89 24.59 37.43 26.19 46.69 31.89C47.2166 32.2146 47.5932 32.7346 47.7375 33.3361C47.8818 33.9376 47.782 34.5718 47.46 35.1L47.42 35.09ZM47.73 26.59C38.07 20.85 22.12 20.32 12.89 23.12C12.1916 23.2917 11.4539 23.1891 10.8289 22.8334C10.2039 22.4776 9.73906 21.8957 9.53016 21.2075C9.32127 20.5193 9.38421 19.7772 9.70601 19.134C10.0278 18.4908 10.584 17.9955 11.26 17.75C21.85 14.53 39.47 15.16 50.6 21.75C50.9267 21.9336 51.2134 22.1806 51.4433 22.4766C51.6731 22.7727 51.8413 23.1116 51.9382 23.4737C52.035 23.8357 52.0585 24.2134 52.0072 24.5847C51.9558 24.9559 51.8308 25.3131 51.6394 25.6353C51.4479 25.9574 51.194 26.238 50.8925 26.4606C50.591 26.6832 50.248 26.8432 49.8837 26.9312C49.5194 27.0192 49.1412 27.0335 48.7714 26.9732C48.4015 26.9129 48.0474 26.7792 47.73 26.58V26.59ZM81.6 27.69C76.42 26.45 75.5 25.59 75.5 23.76C75.5 21.93 77.12 20.89 79.5 20.89C82.0915 20.9844 84.5797 21.9297 86.58 23.58C86.6531 23.6301 86.7421 23.6515 86.83 23.64C86.9197 23.6192 87.0003 23.5701 87.06 23.5L89.58 19.93C89.6326 19.8609 89.6557 19.7738 89.6445 19.6877C89.6332 19.6016 89.5885 19.5234 89.52 19.47C86.7251 17.1814 83.2121 15.9526 79.6 16C74.01 16 70.11 19.35 70.11 24.15C70.11 29.3 73.48 31.15 79.3 32.53C84.3 33.67 85.09 34.63 85.09 36.34C85.09 38.23 83.4 39.41 80.68 39.41C77.68 39.41 75.19 38.41 72.43 36.01C72.3602 35.9509 72.2715 35.9189 72.18 35.92C72.0908 35.9291 72.0085 35.972 71.95 36.04L69.11 39.42C69.0495 39.4833 69.0157 39.5674 69.0157 39.655C69.0157 39.7426 69.0495 39.8267 69.11 39.89C72.2405 42.7408 76.326 44.3144 80.56 44.3C86.56 44.3 90.48 41 90.48 35.91C90.48 31.61 87.92 29.23 81.61 27.69H81.6ZM104.11 22.58C102.855 22.5644 101.613 22.8398 100.481 23.3846C99.3502 23.9293 98.3605 24.7287 97.59 25.72V23.34C97.59 23.2498 97.5542 23.1633 97.4904 23.0996C97.4267 23.0358 97.3402 23 97.25 23H92.62C92.5298 23 92.4434 23.0358 92.3796 23.0996C92.3158 23.1633 92.28 23.2498 92.28 23.34V49.7C92.28 49.7902 92.3158 49.8767 92.3796 49.9404C92.4434 50.0042 92.5298 50.04 92.62 50.04H97.25C97.3402 50.04 97.4267 50.0042 97.4904 49.9404C97.5542 49.8767 97.59 49.7902 97.59 49.7V41.38C98.3854 42.3333 99.3834 43.0973 100.511 43.6162C101.639 44.1352 102.869 44.3961 104.11 44.38C108.97 44.38 113.88 40.64 113.88 33.5C113.88 26.36 109 22.58 104.12 22.58H104.11ZM108.49 33.46C108.49 37.09 106.25 39.63 103.04 39.63C99.83 39.63 97.48 37 97.48 33.46C97.48 29.92 99.87 27.28 103.04 27.28C106.21 27.28 108.49 29.88 108.49 33.46ZM126.49 22.58C124.342 22.6194 122.254 23.2925 120.488 24.5148C118.721 25.7371 117.355 27.4541 116.562 29.4501C115.768 31.4461 115.581 33.6322 116.026 35.7338C116.47 37.8354 117.526 39.7587 119.06 41.2624C120.594 42.766 122.538 43.7829 124.648 44.1852C126.758 44.5876 128.94 44.3575 130.92 43.5239C132.9 42.6903 134.589 41.2904 135.776 39.4998C136.962 37.7093 137.594 35.6081 137.59 33.46C137.582 32.0148 137.288 30.5855 136.725 29.2546C136.162 27.9238 135.34 26.7177 134.308 25.706C133.276 24.6944 132.054 23.8973 130.712 23.3608C129.37 22.8242 127.935 22.5588 126.49 22.58ZM126.49 39.67C125.694 39.6631 124.907 39.4948 124.178 39.1754C123.449 38.856 122.792 38.3921 122.247 37.8116C121.702 37.2312 121.281 36.5463 121.008 35.7984C120.735 35.0504 120.617 34.255 120.66 33.46C120.66 29.9 123.08 27.32 126.41 27.32C127.209 27.3244 127.998 27.4906 128.731 27.8086C129.463 28.1266 130.124 28.5897 130.673 29.1701C131.221 29.7505 131.646 30.4361 131.923 31.1855C132.199 31.9348 132.321 32.7324 132.28 33.53C132.26 37.09 129.82 39.67 126.47 39.67H126.49ZM150.92 23H145.82V17.79C145.82 17.6998 145.784 17.6133 145.72 17.5496C145.657 17.4858 145.57 17.45 145.48 17.45H140.84C140.75 17.45 140.663 17.4858 140.6 17.5496C140.536 17.6133 140.5 17.6998 140.5 17.79V23H138.27C138.182 23.0026 138.098 23.0396 138.036 23.1031C137.974 23.1665 137.94 23.2515 137.94 23.34V27.34C137.94 27.4285 137.974 27.5135 138.036 27.5769C138.098 27.6404 138.182 27.6774 138.27 27.68H140.5V38C140.5 42.17 142.57 44.28 146.67 44.28C148.186 44.3094 149.682 43.9294 151 43.18C151.053 43.1505 151.097 43.1069 151.127 43.054C151.157 43.001 151.172 42.9408 151.17 42.88V39.09C151.17 39.032 151.156 38.975 151.128 38.9242C151.1 38.8734 151.059 38.8307 151.01 38.8C150.96 38.771 150.903 38.7558 150.845 38.7558C150.787 38.7558 150.73 38.771 150.68 38.8C149.84 39.2353 148.906 39.4584 147.96 39.45C146.47 39.45 145.81 38.78 145.81 37.26V27.67H150.91C150.955 27.67 150.999 27.6612 151.04 27.6441C151.081 27.627 151.119 27.602 151.15 27.5704C151.182 27.5388 151.207 27.5014 151.224 27.4601C151.241 27.4189 151.25 27.3746 151.25 27.33V23.33C151.25 23.2854 151.241 23.2411 151.224 23.1999C151.207 23.1586 151.182 23.1212 151.15 23.0896C151.119 23.058 151.081 23.033 151.04 23.0159C150.999 22.9988 150.955 22.99 150.91 22.99L150.92 23ZM168.7 23V22.36C168.7 20.48 169.42 19.64 171.04 19.64C171.931 19.6497 172.814 19.8121 173.65 20.12C173.702 20.1372 173.757 20.1416 173.811 20.1329C173.865 20.1242 173.916 20.1026 173.96 20.07C174.004 20.0401 174.04 19.9998 174.064 19.9527C174.089 19.9056 174.101 19.8531 174.1 19.8V15.91C174.101 15.8364 174.078 15.7645 174.035 15.705C173.992 15.6455 173.93 15.6016 173.86 15.58C172.61 15.1909 171.309 14.9953 170 15C165.72 15 163.45 17.41 163.45 22V23H161.22C161.13 23 161.043 23.0358 160.98 23.0996C160.916 23.1633 160.88 23.2498 160.88 23.34V27.34C160.88 27.4302 160.916 27.5167 160.98 27.5804C161.043 27.6442 161.13 27.68 161.22 27.68H163.45V43.58C163.45 43.6702 163.486 43.7567 163.55 43.8204C163.613 43.8842 163.7 43.92 163.79 43.92H168.42C168.51 43.92 168.597 43.8842 168.66 43.8204C168.724 43.7567 168.76 43.6702 168.76 43.58V27.67H173.09L179.73 43.57C178.97 45.24 178.23 45.57 177.22 45.57C176.323 45.5489 175.446 45.3012 174.67 44.85C174.583 44.816 174.487 44.816 174.4 44.85C174.356 44.8643 174.315 44.8877 174.281 44.9187C174.246 44.9497 174.219 44.9876 174.2 45.03L172.62 48.48C172.584 48.5587 172.58 48.6479 172.608 48.7296C172.636 48.8114 172.694 48.8794 172.77 48.92C174.278 49.7764 175.986 50.2148 177.72 50.19C181.14 50.19 183.04 48.59 184.72 44.3L192.72 23.52C192.747 23.471 192.761 23.416 192.761 23.36C192.761 23.304 192.747 23.249 192.72 23.2C192.69 23.1561 192.65 23.1203 192.603 23.0959C192.556 23.0714 192.503 23.0591 192.45 23.06H187.62C187.55 23.0581 187.482 23.0784 187.424 23.1179C187.367 23.1575 187.323 23.2142 187.3 23.28L182.3 37.41L176.89 23.27C176.864 23.2069 176.819 23.1531 176.762 23.1157C176.705 23.0782 176.638 23.0588 176.57 23.06H168.7V23ZM158.39 23H153.75C153.661 23.0025 153.576 23.0391 153.512 23.1024C153.449 23.1656 153.413 23.2506 153.41 23.34V43.57C153.41 43.6146 153.419 43.6589 153.436 43.7001C153.453 43.7414 153.478 43.7788 153.51 43.8104C153.541 43.842 153.579 43.867 153.62 43.8841C153.661 43.9012 153.705 43.91 153.75 43.91H158.39C158.48 43.91 158.567 43.8742 158.63 43.8104C158.694 43.7467 158.73 43.6602 158.73 43.57V23.35C158.73 23.2598 158.694 23.1733 158.63 23.1096C158.567 23.0458 158.48 23.01 158.39 23.01V23ZM156.1 13.79C155.441 13.788 154.796 13.9816 154.247 14.3463C153.698 14.711 153.27 15.2304 153.016 15.8387C152.763 16.447 152.695 17.1169 152.823 17.7635C152.95 18.4101 153.267 19.0044 153.732 19.4711C154.197 19.9378 154.79 20.256 155.437 20.3853C156.083 20.5146 156.753 20.4492 157.362 20.1975C157.971 19.9457 158.492 19.5189 158.858 18.9711C159.224 18.4233 159.42 17.779 159.42 17.12C159.42 16.2386 159.071 15.3931 158.448 14.7689C157.826 14.1447 156.981 13.7926 156.1 13.79ZM196.72 29.51C196.071 29.51 195.437 29.3176 194.898 28.9572C194.358 28.5968 193.938 28.0845 193.69 27.4852C193.441 26.8859 193.376 26.2264 193.503 25.5901C193.63 24.9538 193.942 24.3694 194.401 23.9107C194.859 23.452 195.444 23.1396 196.08 23.013C196.716 22.8865 197.376 22.9514 197.975 23.1997C198.575 23.4479 199.087 23.8683 199.447 24.4077C199.808 24.9471 200 25.5813 200 26.23C200.003 26.6615 199.92 27.0892 199.756 27.4883C199.592 27.8875 199.35 28.2501 199.045 28.5552C198.74 28.8603 198.377 29.1018 197.978 29.2657C197.579 29.4296 197.151 29.5127 196.72 29.51ZM196.72 23.29C196.135 23.2841 195.561 23.4523 195.072 23.7732C194.583 24.0942 194.2 24.5534 193.972 25.0925C193.745 25.6315 193.683 26.2261 193.794 26.8006C193.905 27.3751 194.185 27.9035 194.597 28.3187C195.009 28.7339 195.536 29.017 196.11 29.1322C196.683 29.2473 197.278 29.1892 197.819 28.9653C198.359 28.7414 198.821 28.3618 199.146 27.8747C199.47 27.3877 199.642 26.8151 199.64 26.23C199.643 25.8465 199.57 25.4663 199.425 25.111C199.281 24.7558 199.068 24.4324 198.799 24.1594C198.53 23.8864 198.209 23.6691 197.856 23.5199C197.503 23.3707 197.123 23.2926 196.74 23.29H196.72ZM197.44 26.56L198.36 27.85H197.58L196.75 26.67H196.04V27.85H195.39V24.43H196.91C197.71 24.43 198.24 24.84 198.24 25.52C198.245 25.7539 198.167 25.9821 198.021 26.1649C197.875 26.3476 197.669 26.4732 197.44 26.52V26.56ZM196.91 25H196.06V26.1H196.91C197.33 26.1 197.59 25.89 197.59 25.56C197.59 25.23 197.33 25 196.91 25Z" fill="#1ED760"/>
</svg>
