<svg width="200" height="97" viewBox="0 0 200 97" fill="none" xmlns="http://www.w3.org/2000/svg">
<path d="M25 75.0517C23.86 75.3817 23 75.6817 22.05 75.8917C19.848 76.3805 17.5707 76.4263 15.3508 76.0263C13.1309 75.6262 11.0129 74.7884 9.12 73.5617C4 70.5017 1.19 65.7517 0.06 60.0017C0.00978861 59.4629 0.00978861 58.9205 0.06 58.3817C0 51.8917 0.05 45.4517 0 39.0017C0.0515033 34.8384 1.47921 30.8092 4.06049 27.5424C6.64178 24.2755 10.2315 21.9547 14.27 20.9417C16.3727 20.3713 18.5713 20.2457 20.7253 20.5728C22.8793 20.9 24.9414 21.6727 26.78 22.8417C28.4342 22.0403 30.0433 21.149 31.6 20.1717C34.41 18.2317 37.67 20.7217 37.6 23.8117C37.5 35.4917 37.6 47.1717 37.6 58.8617C37.6 65.0617 37.6 71.2617 37.6 77.4617C37.7063 81.6848 36.3418 85.8136 33.74 89.1417C30.17 93.6717 25.56 96.4017 19.62 96.5517C16.1415 96.7998 12.6603 96.1091 9.54 94.5517C7.56922 93.5408 5.79471 92.1862 4.3 90.5517C3.48521 89.6532 2.95528 88.5332 2.77727 87.3334C2.59926 86.1337 2.78118 84.908 3.3 83.8117C3.733 82.7464 4.47916 81.8376 5.4398 81.2055C6.40044 80.5734 7.53031 80.2478 8.68 80.2717C9.637 80.2373 10.5902 80.4088 11.4752 80.7745C12.3603 81.1403 13.1565 81.6918 13.81 82.3917C14.5849 83.1473 15.5331 83.7018 16.5716 84.0066C17.6102 84.3114 18.7076 84.3573 19.768 84.1403C20.8283 83.9232 21.8195 83.4499 22.6548 82.7616C23.4901 82.0733 24.1442 81.191 24.56 80.1917C25.3 78.5317 24.89 76.8717 25 75.0517ZM25 48.3817V38.8117C24.9738 37.2378 24.3301 35.7372 23.2077 34.6335C22.0853 33.5299 20.5741 32.9115 19 32.9117C18.1139 32.8991 17.2344 33.0662 16.4147 33.4029C15.5949 33.7396 14.8519 34.2389 14.2304 34.8706C13.6089 35.5024 13.1219 36.2535 12.7987 37.0787C12.4755 37.9038 12.3229 38.7859 12.35 39.6717C12.3033 45.3917 12.3033 51.1084 12.35 56.8217C12.4012 57.7794 12.6212 58.7206 13 59.6017C14.12 62.6017 16.56 64.1217 20.37 63.6017C21.7171 63.2863 22.9155 62.5188 23.7653 61.4269C24.6151 60.3351 25.065 58.985 25.04 57.6017C24.93 54.5117 25 51.4517 25 48.3817ZM175 55.8117C174.51 58.7417 175.29 61.0217 177.56 62.6517C178.28 63.1377 179.094 63.4692 179.948 63.6252C180.803 63.7813 181.681 63.7586 182.527 63.5584C183.372 63.3583 184.167 62.9852 184.861 62.4625C185.556 61.9398 186.134 61.279 186.56 60.5217C187.222 59.0334 188.377 57.8186 189.83 57.0817C190.944 56.5601 192.187 56.3768 193.405 56.5546C194.622 56.7323 195.761 57.2633 196.68 58.0817C197.647 58.9158 198.323 60.0367 198.608 61.2812C198.894 62.5258 198.776 63.8292 198.27 65.0017C197.136 67.7602 195.338 70.1953 193.034 72.0901C190.731 73.985 187.995 75.2806 185.07 75.8617C178.31 77.3817 172.37 75.4017 167.56 70.4517C165.881 68.7843 164.552 66.7986 163.651 64.611C162.749 62.4233 162.293 60.0777 162.31 57.7117C162.31 51.1517 162.31 44.5817 162.31 38.0217C162.397 33.5216 164.084 29.1997 167.07 25.8314C170.055 22.463 174.143 20.2686 178.6 19.6417C183.171 18.9684 187.825 20.0783 191.6 22.7417C193.854 24.2179 195.757 26.1701 197.176 28.461C198.594 30.7519 199.493 33.3259 199.81 36.0017C200.03 38.8802 200.05 41.7704 199.87 44.6517C199.815 44.997 199.714 45.3333 199.57 45.6517C199.239 47.0311 198.526 48.2892 197.513 49.2816C196.499 50.274 195.226 50.9603 193.84 51.2617C188.64 52.5317 183.4 53.6817 178.18 54.9017C177.14 55.2117 176.11 55.5117 175 55.8117ZM175 42.8117L187.41 40.0517C187.442 38.793 187.355 37.534 187.15 36.2917C186.678 35.0234 185.826 33.9314 184.712 33.1638C183.597 32.3963 182.273 31.9905 180.92 32.0017C177.31 32.3117 175.06 35.0017 174.92 37.2817C174.89 39.0017 175 40.6917 175 42.8417V42.8117ZM59.44 55.8117C58.966 57.3289 59.1071 58.9716 59.8329 60.3857C60.5587 61.7998 61.811 62.8722 63.32 63.3717C66.32 64.2517 69.06 63.6217 70.87 60.4817C71.4932 59.2697 72.4157 58.2371 73.55 57.4817C74.6949 56.7418 76.0547 56.4068 77.4123 56.5301C78.7698 56.6533 80.047 57.2277 81.04 58.1617C82.0794 59.126 82.7626 60.4133 82.9786 61.8146C83.1946 63.2159 82.9308 64.6491 82.23 65.8817C80.0079 70.2667 76.1614 73.6109 71.51 75.2017C67.9274 76.4718 64.0419 76.6151 60.3755 75.6123C56.709 74.6094 53.4374 72.5085 51 69.5917C48.1526 66.3021 46.5931 62.0924 46.61 57.7417C46.61 51.3017 46.61 44.8617 46.61 38.4217C46.5691 34.3753 47.8383 30.4242 50.2282 27.1587C52.618 23.8932 56.0002 21.4884 59.8695 20.3037C63.7388 19.1189 67.8875 19.2177 71.696 20.5854C75.5045 21.953 78.7684 24.5161 81 27.8917C83.063 31.1288 84.1689 34.8832 84.19 38.7217C84.276 40.9381 84.1555 43.1576 83.83 45.3517C83.616 46.8229 82.9494 48.191 81.9226 49.2662C80.8958 50.3414 79.5598 51.0702 78.1 51.3517C72.78 52.6317 67.43 53.7917 62.1 55.0217C61.17 55.2117 60.27 55.5417 59.39 55.8117H59.44ZM71.63 40.1117V38.2717C71.6465 36.7749 71.1227 35.3224 70.1546 34.1807C69.1866 33.0389 67.8393 32.2846 66.36 32.0561C64.8806 31.8275 63.3685 32.1402 62.1011 32.9366C60.8337 33.733 59.8959 34.9597 59.46 36.3917C58.8806 38.4857 58.8806 40.6977 59.46 42.7917L71.63 40.1117ZM92.93 69.9317C92.967 71.3383 93.45 72.6967 94.3091 73.8111C95.1682 74.9254 96.3591 75.738 97.71 76.1317C99.0017 76.3926 100.342 76.2572 101.555 75.7433C102.769 75.2294 103.799 74.3609 104.51 73.2517C105.224 71.9271 105.569 70.4352 105.51 68.9317C105.51 61.2184 105.51 53.5117 105.51 45.8117C105.51 43.0417 105.64 40.2717 105.61 37.5117C105.58 34.7517 109.14 31.5117 112.61 32.0417C114.117 32.3121 115.484 33.0967 116.478 34.2618C117.472 35.427 118.031 36.9006 118.06 38.4317C117.97 48.7217 118.06 59.0217 118.06 69.3117C118.065 70.7546 118.455 72.1701 119.19 73.4117C119.914 74.499 120.959 75.333 122.18 75.7974C123.401 76.2617 124.737 76.3331 126 76.0017C127.322 75.5745 128.469 74.7309 129.271 73.597C130.074 72.4632 130.487 71.1001 130.45 69.7117C130.45 59.5417 130.45 49.3617 130.45 39.1917C130.475 37.2748 130.236 35.3635 129.74 33.5117C127.62 25.7017 121.74 20.8917 114.01 19.6317C109.503 18.943 104.906 20.0527 101.21 22.7217C98.5775 24.4211 96.426 26.7686 94.9621 29.5389C93.4981 32.3092 92.7708 35.4093 92.85 38.5417C92.85 43.6017 92.85 48.6517 92.85 53.7117C92.9 59.1017 93 64.5217 92.88 69.9317H92.93ZM140.62 70.1117C140.692 71.5537 141.236 72.9322 142.168 74.0345C143.101 75.1369 144.37 75.9019 145.78 76.2117C147.207 76.495 148.688 76.2441 149.942 75.5065C151.195 74.769 152.134 73.5964 152.58 72.2117C152.904 71.0642 153.049 69.8735 153.01 68.6817C153.01 55.6084 153.01 42.5417 153.01 29.4817C153.01 28.0417 153.1 26.5817 153.01 25.1517C152.902 23.7661 152.323 22.4592 151.37 21.4478C150.417 20.4364 149.147 19.7815 147.77 19.5917C143.65 18.9617 140.53 22.8017 140.61 26.0817C140.8 33.3017 140.67 40.5317 140.67 47.7517C140.61 55.1817 140.66 62.6517 140.57 70.1117H140.62ZM146.8 15.4617C147.822 15.4793 148.837 15.2908 149.785 14.9075C150.733 14.5241 151.593 13.9538 152.316 13.2304C153.038 12.5071 153.608 11.6456 153.99 10.6974C154.372 9.74926 154.559 8.73381 154.54 7.71169C154.552 6.68986 154.359 5.676 153.971 4.73042C153.584 3.78485 153.01 2.92687 152.284 2.20755C151.558 1.48823 150.695 0.922257 149.746 0.543304C148.797 0.164351 147.782 -0.0198395 146.76 0.0016917C145.756 -0.0146405 144.759 0.171525 143.829 0.549065C142.899 0.926605 142.054 1.48777 141.346 2.19904C140.638 2.91032 140.08 3.75709 139.706 4.68879C139.332 5.62049 139.15 6.61799 139.17 7.62169C139.119 8.64268 139.279 9.66322 139.638 10.6201C139.998 11.5771 140.55 12.45 141.26 13.1849C141.971 13.9199 142.825 14.5011 143.769 14.8927C144.713 15.2844 145.728 15.478 146.75 15.4617H146.8Z" fill="#0095FC"/>
</svg>
