<svg width="201" height="78" viewBox="0 0 201 78" fill="none" xmlns="http://www.w3.org/2000/svg">
<path d="M26.54 31.9386C28.68 31.9386 30.69 32.0586 32.67 31.9386C35.89 31.6986 37.78 30.0086 38.22 26.4486C38.5704 24.3098 38.3967 22.1179 37.714 20.061C37.0313 18.004 35.8598 16.1434 34.3 14.6386C33.4603 13.8005 32.4616 13.1388 31.3625 12.6923C30.2635 12.2458 29.0862 12.0235 27.9 12.0386C22.83 12.0386 17.77 11.9586 12.71 12.0386C11.0819 12.132 9.45892 11.7813 8.01462 11.0239C6.57033 10.2666 5.35897 9.131 4.51 7.73858C2.94 5.38858 1.61 2.84858 0 0.0385797C2.611 -0.0455147 5.22462 0.00789258 7.83 0.19858C8.39 0.19858 8.94 0.34858 9.5 0.35858C14.81 0.51858 20.13 0.59858 25.43 0.82858C29.28 0.99858 33.14 1.11858 36.88 2.30858C39.6033 3.14239 42.0953 4.59833 44.1589 6.56127C46.2225 8.52422 47.8012 10.9403 48.77 13.6186C50.7645 18.4178 51.5309 23.6386 51 28.8086C50.54 32.9986 48.52 36.3286 44.35 37.9686C44.0064 38.1251 43.6724 38.3021 43.35 38.4986C44.04 38.7286 44.58 38.9186 45.13 39.0886C47.4195 39.7501 49.5063 40.9756 51.1992 42.6529C52.8922 44.3301 54.1371 46.4054 54.82 48.6886C56.1943 52.572 56.8121 56.6827 56.64 60.7986C56.28 67.1486 52.81 71.5486 46.35 73.1186C44.339 73.538 42.3004 73.812 40.25 73.9386C36.3433 74.3186 32.4333 74.6519 28.52 74.9386C26.42 75.1086 24.31 75.1686 22.1 75.2886C21.51 72.9386 20.9 70.6586 20.36 68.3786C18.8 61.7386 17.29 55.0886 15.73 48.4486C14 40.8686 12.07 33.2886 10.37 25.6686C10.0982 24.2008 10.1323 22.6926 10.47 21.2386C10.92 18.9486 13.1 16.9986 16.41 16.5686C21.13 15.9586 23.23 18.8086 24.03 22.0386C24.73 24.8686 25.4 27.7086 26.09 30.5286C26.19 30.9486 26.35 31.3486 26.54 31.9386ZM32.21 63.0386C34.3705 62.9974 36.5271 62.8371 38.67 62.5586C39.9122 62.3986 41.0696 61.8423 41.9704 60.9721C42.8712 60.102 43.4672 58.9645 43.67 57.7286C43.9621 56.0154 43.9384 54.2632 43.6 52.5586C43.3558 50.6083 42.7124 48.7293 41.71 47.0386C41.2115 46.1731 40.5452 45.416 39.7501 44.8115C38.955 44.207 38.0472 43.7675 37.08 43.5186C34.31 42.8386 31.53 43.3286 28.5 43.2286L32.21 63.0386ZM96.48 70.1286C96.3467 54.6286 96.2367 39.1286 96.15 23.6286C96.15 22.9486 96.15 22.2586 96.1 21.5686C96.0573 20.1648 95.5235 18.8205 94.5915 17.7698C93.6596 16.7191 92.3886 16.0286 91 15.8186C86.78 15.4586 84.6 17.5586 83.83 20.3886C83.5294 21.6586 83.4182 22.9661 83.5 24.2686C83.66 29.6986 83.93 35.1286 84.09 40.5586C84.28 46.7986 84.39 53.0486 84.54 59.2986C84.54 59.9186 84.65 60.5386 84.64 61.1686C84.6718 62.7243 84.6083 64.2806 84.45 65.8286C84.3688 66.4654 84.143 67.0752 83.7899 67.6113C83.4368 68.1475 82.9658 68.5958 82.4128 68.922C81.8599 69.2481 81.2397 69.4435 80.5996 69.4932C79.9596 69.5429 79.3166 69.4455 78.72 69.2086C78.1301 69.0094 77.5936 68.6779 77.1516 68.2393C76.7096 67.8008 76.3738 67.2669 76.17 66.6786C75.37 64.7786 75.49 62.7786 75.35 60.7986C75.13 57.7986 74.88 54.7086 74.69 51.6586C74.5 48.6086 74.43 45.8086 74.28 42.8786C74.16 40.6986 74.0233 38.5186 73.87 36.3386C73.66 33.2386 73.4 30.1286 73.2 27.0186C73.03 24.2186 72.91 21.4186 72.76 18.6186C72.76 18.4486 72.61 18.2886 72.43 17.9286C70.19 17.9286 67.88 17.8586 65.58 17.9286C63.28 17.9986 61 17.6186 58.71 18.0386C58.96 21.1986 59.18 24.1786 59.42 27.1486C59.53 28.5186 59.69 29.8786 59.82 31.2486C60.16 34.7152 60.4933 38.1852 60.82 41.6586C61.04 43.8886 61.27 46.1186 61.47 48.3486C61.67 50.5786 61.8 52.6986 61.97 54.8686C62.12 56.6686 62.27 58.4686 62.43 60.2686C62.64 62.6186 62.87 64.9786 63.1 67.3286C63.52 71.6286 65.43 74.8786 69.57 76.5686C71.7609 77.4886 74.1719 77.7526 76.51 77.3286C78.8101 77.0865 80.9552 76.0546 82.58 74.4086C83.33 73.5986 84.06 72.7686 84.77 71.9586C84.97 72.0686 85.11 72.0986 85.16 72.1786C86.78 75.0586 89.45 75.7886 92.47 75.6786C93.83 75.6786 95.19 75.4086 96.77 75.2386C96.67 73.5086 96.49 71.8386 96.48 70.1686V70.1286ZM123.08 45.6986C122.49 46.2686 122.08 46.6986 121.61 47.1186C120.63 48.1295 119.459 48.935 118.164 49.4879C116.87 50.0407 115.478 50.33 114.07 50.3386C111.893 50.5472 109.699 50.2032 107.69 49.3386C105.994 48.5374 104.624 47.1784 103.81 45.4886C102.888 43.4526 102.301 41.2815 102.07 39.0586C101.45 34.2886 102.14 29.5586 102.22 24.8186C102.24 21.2083 102.724 17.6156 103.66 14.1286C104.324 11.258 105.743 8.61699 107.77 6.47858C109.608 4.68404 112.035 3.61797 114.6 3.47858C116.211 3.37841 117.828 3.48935 119.41 3.80858C120.889 4.08915 122.277 4.72686 123.454 5.66625C124.63 6.60564 125.559 7.81825 126.16 9.19858L126.84 10.5586C127.952 8.51619 129.757 6.93811 131.93 6.10858C134.13 5.33858 136.37 5.78858 138.81 5.64858C138.849 6.34136 138.849 7.0358 138.81 7.72858C138.63 9.39858 138.35 11.0486 138.16 12.7286C137.87 15.2686 137.62 17.8186 137.34 20.3586C137.13 22.3586 136.88 24.3586 136.67 26.2886C136.38 29.0086 136.13 31.7286 135.82 34.4486C135.51 37.1686 135.13 39.9986 134.82 42.7786C134.64 44.3186 134.51 45.8786 134.35 47.4186C134.152 50.8946 133.589 54.3402 132.67 57.6986C131.14 62.3986 128.17 65.6986 123.23 66.8786C118.944 68.0537 114.416 68.0156 110.15 66.7686C108.537 66.3569 107.066 65.5168 105.892 64.3374C104.718 63.1579 103.884 61.683 103.48 60.0686C103.161 59.0858 103.04 58.0494 103.124 57.0195C103.208 55.9895 103.495 54.9865 103.97 54.0686C104.45 53.2214 105.188 52.5494 106.077 52.1502C106.965 51.7509 107.958 51.6453 108.91 51.8486C109.818 51.9391 110.672 52.3259 111.339 52.9494C112.005 53.5728 112.449 54.3983 112.6 55.2986C112.85 56.4486 113.05 57.5986 113.32 58.7486C114.04 61.7486 118.23 62.5286 120.21 60.2586C121.023 59.4164 121.614 58.3855 121.93 57.2586C122.298 55.5617 122.572 53.8457 122.75 52.1186C122.94 50.4486 123.02 48.7686 123.13 47.1186C123.16 46.6886 123.11 46.3286 123.08 45.7386V45.6986ZM114 34.4986H114.14C114.14 35.2486 114.14 35.9986 114.14 36.7486C114.18 37.7363 114.318 38.7177 114.55 39.6786C114.702 40.5441 115.136 41.3353 115.783 41.93C116.43 42.5246 117.255 42.8896 118.13 42.9686C119.031 43.1078 119.954 42.9425 120.75 42.4988C121.547 42.055 122.174 41.3582 122.53 40.5186C122.984 39.7706 123.321 38.958 123.53 38.1086C123.99 35.5586 124.38 32.9886 124.7 30.4186C124.94 28.4986 124.99 26.5686 125.21 24.6486C125.602 21.8076 125.548 18.9229 125.05 16.0986C124.74 14.5286 124.11 13.0986 122.45 12.4686C121.413 12.0736 120.266 12.0802 119.234 12.4872C118.201 12.8942 117.358 13.6722 116.87 14.6686C116.505 15.384 116.223 16.1389 116.03 16.9186C115.376 19.4419 114.981 22.0252 114.85 24.6286C114.6 27.9286 114.24 31.2086 114 34.4986ZM138.42 54.1486C138.049 56.3646 138.21 58.637 138.89 60.7786C139.187 61.8315 139.736 62.7965 140.488 63.5908C141.241 64.3851 142.175 64.9848 143.21 65.3386C146.178 66.3669 149.375 66.547 152.44 65.8586C157.44 64.9586 161.1 61.9486 163.79 57.7086C165.622 54.8042 166.771 51.5217 167.15 48.1086C167.438 46.4185 167.347 44.6853 166.881 43.0351C166.416 41.3848 165.589 39.859 164.46 38.5686C163.131 37.1622 161.729 35.827 160.26 34.5686C158.97 33.3986 157.57 32.3386 156.26 31.1486C154.04 29.0986 153.81 26.4786 154.45 23.7386C154.817 22.0803 155.746 20.6 157.08 19.5486C157.565 19.1528 158.154 18.9047 158.776 18.8338C159.399 18.7629 160.028 18.8721 160.59 19.1486C161.104 19.3804 161.531 19.7676 161.813 20.2557C162.095 20.7437 162.216 21.3079 162.16 21.8686C162.16 22.4886 162.03 23.1086 162 23.7286C161.92 24.9686 161.8 26.2086 161.81 27.4486C161.813 28.0138 161.978 28.5663 162.287 29.0398C162.595 29.5133 163.034 29.8879 163.55 30.1186C167.02 31.9486 170.33 30.2286 171.48 26.8586C172.5 23.9085 172.912 20.7822 172.69 17.6686C172.647 16.0357 172.121 14.4522 171.177 13.1188C170.234 11.7854 168.916 10.7621 167.39 10.1786C164.255 8.90417 160.797 8.65219 157.51 9.45858C153.239 10.2796 149.444 12.7014 146.9 16.2286C144.506 19.6616 143.064 23.6674 142.72 27.8386C142.591 29.4511 142.661 31.0734 142.93 32.6686C143.169 34.2426 143.716 35.7541 144.539 37.1165C145.363 38.4789 146.447 39.6656 147.73 40.6086C149.73 42.2586 151.91 43.7586 153.95 45.3986C156.78 47.6786 157.64 50.2686 156.41 53.8686C155.77 55.7286 154.73 57.3786 152.59 57.8686C150.45 58.3586 148.36 57.2886 148.59 54.8686C148.76 53.2786 148.88 51.6786 149.03 49.9486H139C138.75 51.4686 138.63 52.8186 138.38 54.1486H138.42ZM183.42 16.4286C181.5 24.3086 179.54 32.1686 177.65 40.0586C177.373 41.2656 177.236 42.5003 177.24 43.7386C177.227 44.4001 177.451 45.0444 177.871 45.5558C178.29 46.0672 178.879 46.4121 179.53 46.5286C180.558 46.8471 181.67 46.7605 182.636 46.2864C183.603 45.8124 184.352 44.9868 184.73 43.9786C185.52 42.3586 186.19 40.6886 186.89 39.0286C190.057 31.4086 193.227 23.7886 196.4 16.1686C197.61 13.2486 198.79 10.3186 200.03 7.26858H185.59C184.84 10.4086 184.13 13.4186 183.39 16.4286H183.42ZM183.17 54.9686C183.17 52.0886 180.84 50.0786 177.82 49.9086C175.43 49.7686 172.46 52.3886 172.65 55.1786C172.661 55.8456 172.806 56.5037 173.076 57.1139C173.345 57.7241 173.735 58.2742 174.22 58.7318C174.706 59.1893 175.278 59.5451 175.903 59.7781C176.528 60.0111 177.193 60.1167 177.86 60.0886C179.237 60.102 180.564 59.572 181.552 58.6134C182.541 57.6549 183.111 56.3452 183.14 54.9686H183.17Z" fill="#FF3B28"/>
</svg>
