<svg width="200" height="57" viewBox="0 0 200 57" fill="none" xmlns="http://www.w3.org/2000/svg">
<path fill-rule="evenodd" clip-rule="evenodd" d="M23.54 55.7001L0.0800019 1.36011C0.0189796 1.21126 -0.00834046 1.05076 1.93692e-06 0.890106C0.0184085 0.729888 0.0731307 0.575982 0.160002 0.440107C0.251264 0.308603 0.370868 0.199251 0.510002 0.120107C0.660396 0.0388876 0.829097 -0.00242706 1 0.000106503H14.43C14.6218 0.00328531 14.8086 0.0615373 14.9681 0.167919C15.1277 0.2743 15.2533 0.424324 15.33 0.600107L30.86 37.4601L46.38 0.600107C46.4549 0.4217 46.58 0.268856 46.74 0.160106C46.901 0.0561393 47.0884 0.000603085 47.28 0.000106503H60.74C60.8987 0.00687435 61.0535 0.0513597 61.1917 0.129878C61.3298 0.208396 61.4472 0.318688 61.5342 0.451618C61.6211 0.584548 61.6752 0.73629 61.6919 0.894278C61.7086 1.05226 61.6873 1.21195 61.63 1.36011L38.26 55.7001C38.1819 55.8712 38.0571 56.0167 37.9 56.1201C37.743 56.2258 37.5592 56.2847 37.37 56.2901H24.43C24.2411 56.2859 24.0572 56.2283 23.8997 56.1238C23.7421 56.0194 23.6174 55.8725 23.54 55.7001ZM70.86 55.0001V1.00011C70.861 0.742637 70.9613 0.495484 71.14 0.310107C71.3279 0.129021 71.5791 0.028539 71.84 0.0301065H84.16C84.4209 0.028539 84.6721 0.129021 84.86 0.310107C85.0387 0.495484 85.139 0.742637 85.14 1.00011V55.0001C85.1419 55.1269 85.1181 55.2528 85.07 55.3701C85.0227 55.4901 84.9513 55.599 84.8601 55.6902C84.7689 55.7814 84.66 55.8528 84.54 55.9001C84.4179 55.9435 84.2896 55.9671 84.16 55.9701H71.84C71.7104 55.9671 71.5821 55.9435 71.46 55.9001C71.345 55.8491 71.2401 55.7779 71.15 55.6901C71.0565 55.5988 70.9817 55.4901 70.93 55.3701C70.8867 55.2514 70.863 55.1264 70.86 55.0001ZM124.77 22.6501C129.77 22.6501 132.68 20.4801 132.68 16.8401C132.68 12.5001 128.38 11.5901 124.77 11.5901H113.53V22.6801L124.77 22.6501ZM126.77 44.1801C128.947 44.3201 131.111 43.7441 132.93 42.5401C133.541 42.0709 134.032 41.4641 134.364 40.769C134.696 40.0738 134.859 39.3102 134.84 38.5401C134.84 34.4101 130.63 33.5401 127.09 33.5401H113.53V44.2101L126.77 44.1801ZM99.43 55.0001V1.00011C99.4239 0.863265 99.4478 0.726747 99.5 0.600107C99.5487 0.480914 99.62 0.372257 99.71 0.280107C99.7932 0.19323 99.8915 0.12209 100 0.0701065C100.126 0.0166052 100.263 -0.00733756 100.4 0.000106503H127C132.88 0.000106503 137.75 1.39011 141.09 4.00011C142.732 5.31146 144.044 6.98987 144.919 8.90036C145.794 10.8109 146.209 12.9001 146.13 15.0001C146.13 20.4401 143.13 25.3501 138.85 27.1601C144.77 28.6801 148.57 33.8201 148.57 40.3801C148.625 42.5536 148.172 44.7099 147.249 46.6783C146.326 48.6466 144.956 50.3728 143.25 51.7201C139.72 54.5301 134.65 56.0201 128.61 56.0201H100.4C100.274 56.0171 100.149 55.9934 100.03 55.9501C99.9081 55.9018 99.7987 55.8266 99.71 55.7301C99.6211 55.6409 99.5499 55.5357 99.5 55.4201C99.4575 55.3012 99.4339 55.1763 99.43 55.0501V55.0001ZM157.71 55.0001V1.00011C157.708 0.866823 157.732 0.734468 157.782 0.610821C157.832 0.487175 157.906 0.374733 158 0.280107C158.183 0.103791 158.426 0.00368242 158.68 0.000106503H199C199.126 0.00219667 199.252 0.0258706 199.37 0.0701065C199.489 0.11885 199.598 0.190156 199.69 0.280107C199.78 0.372257 199.851 0.480914 199.9 0.600107C199.957 0.726399 199.991 0.861871 200 1.00011V11.3901C199.997 11.5164 199.973 11.6414 199.93 11.7601C199.883 11.8801 199.811 11.989 199.72 12.0802C199.629 12.1714 199.52 12.2428 199.4 12.2901C199.283 12.3393 199.157 12.3631 199.03 12.3601H171.83V22.1901H195.19C195.455 22.1901 195.71 22.2955 195.897 22.483C196.085 22.6705 196.19 22.9249 196.19 23.1901V33.3301C196.19 33.5953 196.085 33.8497 195.897 34.0372C195.71 34.2247 195.455 34.3301 195.19 34.3301H171.83V43.6701H199C199.128 43.6705 199.254 43.6978 199.37 43.7501C199.491 43.7949 199.601 43.8667 199.69 43.9601C199.779 44.0493 199.85 44.1545 199.9 44.2701C199.942 44.389 199.966 44.5139 199.97 44.6401V55.0001C199.967 55.1264 199.943 55.2514 199.9 55.3701C199.853 55.4901 199.781 55.599 199.69 55.6902C199.599 55.7814 199.49 55.8528 199.37 55.9001C199.253 55.9546 199.128 55.9885 199 56.0001H158.68C158.426 55.9965 158.183 55.8964 158 55.7201C157.906 55.6255 157.832 55.513 157.782 55.3894C157.732 55.2657 157.708 55.1334 157.71 55.0001Z" fill="black"/>
</svg>
