<svg width="36" height="30" viewBox="0 0 36 30" fill="none" xmlns="http://www.w3.org/2000/svg">
<path d="M32.7456 5.03778H2.51889C1.1335 5.03778 0 3.90428 0 2.51889C0 1.1335 1.1335 0 2.51889 0H32.7456C34.131 0 35.2645 1.1335 35.2645 2.51889C35.2645 3.90428 34.131 5.03778 32.7456 5.03778ZM35.2645 14.9874C35.2645 13.602 34.131 12.4685 32.7456 12.4685H2.51889C1.1335 12.4685 0 13.602 0 14.9874C0 16.3728 1.1335 17.5063 2.51889 17.5063H32.7456C34.131 17.5063 35.2645 16.398 35.2645 14.9874ZM35.2645 27.4811C35.2645 26.0957 34.131 24.9622 32.7456 24.9622H2.51889C1.1335 24.9622 0 26.0957 0 27.4811C0 28.8665 1.1335 30 2.51889 30H32.7456C34.131 30 35.2645 28.8665 35.2645 27.4811Z" fill="black"/>
</svg>
